<?xml version="1.0" encoding="UTF-8"?>
<svg width="1300px" height="1225px" viewBox="0 0 1300 1225" version="1.1" xmlns="http://www.w3.org/2000/svg" xmlns:xlink="http://www.w3.org/1999/xlink">
    <!-- Generator: Sketch 43.2 (39069) - http://www.bohemiancoding.com/sketch -->
    <title>ShortTech</title>
    <desc>Created with Sketch.</desc>
    <defs></defs>
    <g id="Page-1" stroke="none" stroke-width="1" fill="none" fill-rule="evenodd">
        <g id="Artboard" transform="translate(-350.000000, -388.000000)" fill="#000000">
            <path d="M1150,1513 L1150,813 L650,813 L650,613 L1150,613 L1150,488.000052 C1150,432.771525 1194.77153,388 1250,388 C1305.22847,388 1350,432.771525 1350,488 L1350,613 L1550,613 C1605.22847,613 1650,657.771525 1650,713 C1650,768.228475 1605.22847,813 1550,813 L1350,813 L1350,1513 C1350,1568.22847 1305.22847,1613 1250,1613 C1194.77153,1613 1150,1568.22847 1150,1513 Z M650,813 C594.771525,813 550,857.771525 550,913 C550,968.228475 594.771525,1013 650,1013 L750,1013 C915.685425,1013 1050,1147.31458 1050,1313 C1050,1478.68542 915.685425,1613 750,1613 L450,1613 C394.771525,1613 350,1568.22847 350,1513 C350,1457.77153 394.771525,1413 450,1413 L529.26764,1413 L508.535279,1413 L750,1413 C805.228475,1413 850,1368.22847 850,1313 C850,1257.77153 805.228475,1213 749.999983,1213 L650,1213 C484.314575,1213 350,1078.68542 350,913 C350,747.314575 484.314575,613 650,613 L650,813 Z" id="Combined-Shape"></path>
        </g>
    </g>
</svg>