<?xml version="1.0" standalone="no"?>
<!DOCTYPE svg PUBLIC "-//W3C//DTD SVG 20010904//EN"
 "http://www.w3.org/TR/2001/REC-SVG-20010904/DTD/svg10.dtd">
<svg version="1.0" xmlns="http://www.w3.org/2000/svg"
 width="260.000000pt" height="260.000000pt" viewBox="0 0 260.000000 260.000000"
 preserveAspectRatio="xMidYMid meet">
<metadata>
Created by potrace 1.11, written by Peter Selinger 2001-2013
</metadata>
<g transform="translate(0.000000,260.000000) scale(0.100000,-0.100000)"
fill="#000000" stroke="none">
<path d="M1709 2507 c-24 -13 -57 -43 -74 -66 -30 -42 -30 -43 -33 -202 l-4
-159 -526 0 c-290 -1 -545 -3 -567 -7 -108 -15 -245 -86 -329 -169 -72 -73
-145 -196 -146 -246 0 -2 -7 -24 -14 -49 -18 -60 -18 -183 1 -267 38 -164 159
-320 308 -395 100 -50 169 -64 330 -66 212 -3 238 -9 293 -70 86 -96 55 -254
-61 -309 -39 -19 -63 -21 -374 -21 -183 -1 -345 -4 -360 -7 -16 -3 -46 -18
-67 -32 -115 -78 -111 -252 7 -330 l41 -27 370 -2 c399 -2 432 1 540 50 227
104 362 319 352 561 -4 92 -5 99 -25 171 -14 51 -77 162 -116 206 -48 54 -126
115 -182 143 -97 48 -177 64 -339 65 -176 2 -220 11 -268 57 -105 99 -80 256
51 323 42 21 50 21 562 21 l521 0 2 -734 3 -734 31 -43 c85 -117 246 -116 329
1 l30 42 3 734 3 734 212 1 c243 1 244 1 296 33 60 38 86 88 86 166 0 78 -26
127 -88 168 l-40 27 -234 3 -233 3 -1 137 c-1 165 -2 174 -37 225 -55 82 -166
110 -253 64z"/>
</g>
</svg>
